<svg xmlns="http://www.w3.org/2000/svg" xmlns:xlink="http://www.w3.org/1999/xlink" width="500" zoomAndPan="magnify" viewBox="0 0 375 374.999991" height="500" preserveAspectRatio="xMidYMid meet" version="1.0"><defs><clipPath id="46ac165d80"><path d="M 17.210938 15.960938 L 357.710938 15.960938 L 357.710938 358.710938 L 17.210938 358.710938 Z M 17.210938 15.960938 " clip-rule="nonzero"/></clipPath></defs><g clip-path="url(#46ac165d80)"><path fill="#ffffff" d="M 332.152344 130.882812 L 353.351562 55.222656 L 318.984375 86.308594 L 245.335938 86.308594 L 245.335938 93.96875 L 204.726562 174.230469 L 204.726562 55.222656 L 318.984375 55.222656 L 357.488281 16.429688 L 303.171875 15.960938 L 297.027344 22.105469 L 77.960938 22.105469 L 71.816406 15.960938 L 17.503906 16.429688 L 56.007812 55.222656 L 170.289062 55.222656 L 170.289062 174.230469 L 129.679688 93.96875 L 129.679688 86.308594 L 56.007812 86.308594 L 21.640625 55.222656 L 42.835938 130.882812 L 56.03125 132.644531 L 56.03125 174.035156 L 40.636719 189.429688 L 56.03125 204.851562 L 56.03125 248.222656 L 32.949219 248.222656 L 89.148438 293.503906 L 89.148438 292.476562 L 90.46875 293.503906 L 90.46875 202.769531 L 103.808594 189.429688 L 90.46875 176.089844 L 90.46875 119.449219 L 104.128906 119.449219 L 170.289062 250.179688 L 170.289062 321.703125 L 149.996094 321.703125 L 187.496094 359.027344 L 224.992188 321.703125 L 204.726562 321.703125 L 204.726562 250.179688 L 270.886719 119.449219 L 284.519531 119.449219 L 284.519531 176.089844 L 271.179688 189.429688 L 284.519531 202.769531 L 284.519531 293.503906 L 285.84375 292.476562 L 285.84375 293.503906 L 342.042969 248.222656 L 318.960938 248.222656 L 318.960938 204.851562 L 334.378906 189.429688 L 318.960938 174.035156 L 318.960938 132.644531 Z M 332.152344 130.882812 " fill-opacity="1" fill-rule="nonzero"/></g></svg>